<svg xmlns="http://www.w3.org/2000/svg" viewBox="0 0 1920 959" preserveAspectRatio="xMidYMid" width="1920" height="959" style="shape-rendering: auto;display: block;background: rgb(255 9 9 / 0%);"><g data-idx="1"><defs data-idx="2">
<linearGradient gradientUnits="objectBoundingBox" y2="1" y1="0" x2="0" x1="0" id="lg" data-idx="3"><stop offset="0" stop-color="#ff00ff" data-idx="4"></stop><stop offset="1" stop-color="#00ffff" data-idx="5"></stop></linearGradient>
</defs><g data-idx="6" transform="matrix(0.9878225117625219,0.15558497760125234,-0.15558497760125234,0.9878225117625219,0,0)">
  
<path stroke-width="0.5" stroke="url(#lg)" fill="none" d="M 705.523 -705.523 C 783.558 -617.707 874.521 -580.817 936.727 -474.002 M 705.523 -705.523 C 783.558 -617.707 874.521 -580.817 936.727 -474.002 C 985.947 -360.616 944.748 -268.957 969.812 -156.05 M 705.523 -705.523 C 783.558 -617.707 874.521 -580.817 936.727 -474.002 C 985.947 -360.616 944.748 -268.957 969.812 -156.05 C 981.431 -40.9789 1067.61 41.9328 1055.28 167.126 M 705.523 -705.523 C 783.558 -617.707 874.521 -580.817 936.727 -474.002 C 985.947 -360.616 944.748 -268.957 969.812 -156.05 C 981.431 -40.9789 1067.61 41.9328 1055.28 167.126 C 1028.32 290.003 936.524 343.716 889.633 451.41 M 705.523 -705.523 C 783.558 -617.707 874.521 -580.817 936.727 -474.002 C 985.947 -360.616 944.748 -268.957 969.812 -156.05 C 981.431 -40.9789 1067.61 41.9328 1055.28 167.126 C 1028.32 290.003 936.524 343.716 889.633 451.41 C 830.409 552.846 848.568 673.506 763.524 768.576 M 705.523 -705.523 C 783.558 -617.707 874.521 -580.817 936.727 -474.002 C 985.947 -360.616 944.748 -268.957 969.812 -156.05 C 981.431 -40.9789 1067.61 41.9328 1055.28 167.126 C 1028.32 290.003 936.524 343.716 889.633 451.41 C 830.409 552.846 848.568 673.506 763.524 768.576 C 667.895 852.992 549.741 817.739 449.816 876.686 M 705.523 -705.523 C 783.558 -617.707 874.521 -580.817 936.727 -474.002 C 985.947 -360.616 944.748 -268.957 969.812 -156.05 C 981.431 -40.9789 1067.61 41.9328 1055.28 167.126 C 1028.32 290.003 936.524 343.716 889.633 451.41 C 830.409 552.846 848.568 673.506 763.524 768.576 C 667.895 852.992 549.741 817.739 449.816 876.686 C 343.654 923.48 285.916 1020.49 163.988 1047.03 M 705.523 -705.523 C 783.558 -617.707 874.521 -580.817 936.727 -474.002 C 985.947 -360.616 944.748 -268.957 969.812 -156.05 C 981.431 -40.9789 1067.61 41.9328 1055.28 167.126 C 1028.32 290.003 936.524 343.716 889.633 451.41 C 830.409 552.846 848.568 673.506 763.524 768.576 C 667.895 852.992 549.741 817.739 449.816 876.686 C 343.654 923.48 285.916 1020.49 163.988 1047.03 C 39.7865 1059.04 -42.2847 999.167 -159.431 987.272 M 705.523 -705.523 C 783.558 -617.707 874.521 -580.817 936.727 -474.002 C 985.947 -360.616 944.748 -268.957 969.812 -156.05 C 981.431 -40.9789 1067.61 41.9328 1055.28 167.126 C 1028.32 290.003 936.524 343.716 889.633 451.41 C 830.409 552.846 848.568 673.506 763.524 768.576 C 667.895 852.992 549.741 817.739 449.816 876.686 C 343.654 923.48 285.916 1020.49 163.988 1047.03 C 39.7865 1059.04 -42.2847 999.167 -159.431 987.272 C -274.367 961.689 -370.585 993.673 -484.81 943.227 M 705.523 -705.523 C 783.558 -617.707 874.521 -580.817 936.727 -474.002 C 985.947 -360.616 944.748 -268.957 969.812 -156.05 C 981.431 -40.9789 1067.61 41.9328 1055.28 167.126 C 1028.32 290.003 936.524 343.716 889.633 451.41 C 830.409 552.846 848.568 673.506 763.524 768.576 C 667.895 852.992 549.741 817.739 449.816 876.686 C 343.654 923.48 285.916 1020.49 163.988 1047.03 C 39.7865 1059.04 -42.2847 999.167 -159.431 987.272 C -274.367 961.689 -370.585 993.673 -484.81 943.227 C -592.314 879.706 -617.707 783.558 -705.523 705.523" data-idx="8">
  
  /&gt;
</path>
</g><g data-idx="10" transform="matrix(0.9893344642742306,0.14566165521241736,-0.14566165521241736,0.9893344642742306,0,0)">
  
<path stroke-width="0.5" stroke="url(#lg)" fill="none" d="M 683.997 -683.997 C 759.651 -598.861 869.138 -584.611 931.827 -478.403 M 683.997 -683.997 C 759.651 -598.861 869.138 -584.611 931.827 -478.403 C 981.598 -365.562 924.993 -262.514 949.437 -151.973 M 683.997 -683.997 C 759.651 -598.861 869.138 -584.611 931.827 -478.403 C 981.598 -365.562 924.993 -262.514 949.437 -151.973 C 960.718 -39.3256 1068.44 38.7951 1056.48 164.108 M 683.997 -683.997 C 759.651 -598.861 869.138 -584.611 931.827 -478.403 C 981.598 -365.562 924.993 -262.514 949.437 -151.973 C 960.718 -39.3256 1068.44 38.7951 1056.48 164.108 C 1029.87 287.146 907.458 334.634 861.836 438.975 M 683.997 -683.997 C 759.651 -598.861 869.138 -584.611 931.827 -478.403 C 981.598 -365.562 924.993 -262.514 949.437 -151.973 C 960.718 -39.3256 1068.44 38.7951 1056.48 164.108 C 1029.87 287.146 907.458 334.634 861.836 438.975 C 804.266 537.23 820.844 648.559 738.925 740.543 M 683.997 -683.997 C 759.651 -598.861 869.138 -584.611 931.827 -478.403 C 981.598 -365.562 924.993 -262.514 949.437 -151.973 C 960.718 -39.3256 1068.44 38.7951 1056.48 164.108 C 1029.87 287.146 907.458 334.634 861.836 438.975 C 804.266 537.23 820.844 648.559 738.925 740.543 C 646.761 822.261 539.779 812.117 440.583 869.932 M 683.997 -683.997 C 759.651 -598.861 869.138 -584.611 931.827 -478.403 C 981.598 -365.562 924.993 -262.514 949.437 -151.973 C 960.718 -39.3256 1068.44 38.7951 1056.48 164.108 C 1029.87 287.146 907.458 334.634 861.836 438.975 C 804.266 537.23 820.844 648.559 738.925 740.543 C 646.761 822.261 539.779 812.117 440.583 869.932 C 335.28 915.687 288.616 1014.03 167.429 1040.93 M 683.997 -683.997 C 759.651 -598.861 869.138 -584.611 931.827 -478.403 C 981.598 -365.562 924.993 -262.514 949.437 -151.973 C 960.718 -39.3256 1068.44 38.7951 1056.48 164.108 C 1029.87 287.146 907.458 334.634 861.836 438.975 C 804.266 537.23 820.844 648.559 738.925 740.543 C 646.761 822.261 539.779 812.117 440.583 869.932 C 335.28 915.687 288.616 1014.03 167.429 1040.93 C 43.9208 1053.39 -36.023 971.48 -149.959 960.512 M 683.997 -683.997 C 759.651 -598.861 869.138 -584.611 931.827 -478.403 C 981.598 -365.562 924.993 -262.514 949.437 -151.973 C 960.718 -39.3256 1068.44 38.7951 1056.48 164.108 C 1029.87 287.146 907.458 334.634 861.836 438.975 C 804.266 537.23 820.844 648.559 738.925 740.543 C 646.761 822.261 539.779 812.117 440.583 869.932 C 335.28 915.687 288.616 1014.03 167.429 1040.93 C 43.9208 1053.39 -36.023 971.48 -149.959 960.512 C -261.815 936.228 -357.726 973.288 -469.644 924.496 M 683.997 -683.997 C 759.651 -598.861 869.138 -584.611 931.827 -478.403 C 981.598 -365.562 924.993 -262.514 949.437 -151.973 C 960.718 -39.3256 1068.44 38.7951 1056.48 164.108 C 1029.87 287.146 907.458 334.634 861.836 438.975 C 804.266 537.23 820.844 648.559 738.925 740.543 C 646.761 822.261 539.779 812.117 440.583 869.932 C 335.28 915.687 288.616 1014.03 167.429 1040.93 C 43.9208 1053.39 -36.023 971.48 -149.959 960.512 C -261.815 936.228 -357.726 973.288 -469.644 924.496 C -575.052 862.887 -598.861 759.651 -683.997 683.997" data-idx="12">
  
  /&gt;
</path>
</g><g data-idx="14" transform="matrix(0.9911081130505722,0.1330590404494718,-0.1330590404494718,0.9911081130505722,0,0)">
  
<path stroke-width="0.5" stroke="url(#lg)" fill="none" d="M 690.765 -690.765 C 767.168 -604.786 880.284 -584.578 942.892 -477.059 M 690.765 -690.765 C 767.168 -604.786 880.284 -584.578 942.892 -477.059 C 992.428 -362.928 917.605 -261.327 941.96 -151.663 M 690.765 -690.765 C 767.168 -604.786 880.284 -584.578 942.892 -477.059 C 992.428 -362.928 917.605 -261.327 941.96 -151.663 C 953.257 -39.8963 1060.1 44.2327 1047.55 168.527 M 690.765 -690.765 C 767.168 -604.786 880.284 -584.578 942.892 -477.059 C 992.428 -362.928 917.605 -261.327 941.96 -151.663 C 953.257 -39.8963 1060.1 44.2327 1047.55 168.527 C 1020.48 290.485 920.169 338.599 873.993 444.406 M 690.765 -690.765 C 767.168 -604.786 880.284 -584.578 942.892 -477.059 C 992.428 -362.928 917.605 -261.327 941.96 -151.663 C 953.257 -39.8963 1060.1 44.2327 1047.55 168.527 C 1020.48 290.485 920.169 338.599 873.993 444.406 C 815.7 544.053 831.775 650.976 749.495 744.228 M 690.765 -690.765 C 767.168 -604.786 880.284 -584.578 942.892 -477.059 C 992.428 -362.928 917.605 -261.327 941.96 -151.663 C 953.257 -39.8963 1060.1 44.2327 1047.55 168.527 C 1020.48 290.485 920.169 338.599 873.993 444.406 C 815.7 544.053 831.775 650.976 749.495 744.228 C 656.825 827.163 535.094 797.225 437.682 854.593 M 690.765 -690.765 C 767.168 -604.786 880.284 -584.578 942.892 -477.059 C 992.428 -362.928 917.605 -261.327 941.96 -151.663 C 953.257 -39.8963 1060.1 44.2327 1047.55 168.527 C 1020.48 290.485 920.169 338.599 873.993 444.406 C 815.7 544.053 831.775 650.976 749.495 744.228 C 656.825 827.163 535.094 797.225 437.682 854.593 C 334.201 900.113 281.548 999.714 162.092 1025.88 M 690.765 -690.765 C 767.168 -604.786 880.284 -584.578 942.892 -477.059 C 992.428 -362.928 917.605 -261.327 941.96 -151.663 C 953.257 -39.8963 1060.1 44.2327 1047.55 168.527 C 1020.48 290.485 920.169 338.599 873.993 444.406 C 815.7 544.053 831.775 650.976 749.495 744.228 C 656.825 827.163 535.094 797.225 437.682 854.593 C 334.201 900.113 281.548 999.714 162.092 1025.88 C 40.3899 1037.82 -37.1032 953.066 -148.867 942.099 M 690.765 -690.765 C 767.168 -604.786 880.284 -584.578 942.892 -477.059 C 992.428 -362.928 917.605 -261.327 941.96 -151.663 C 953.257 -39.8963 1060.1 44.2327 1047.55 168.527 C 1020.48 290.485 920.169 338.599 873.993 444.406 C 815.7 544.053 831.775 650.976 749.495 744.228 C 656.825 827.163 535.094 797.225 437.682 854.593 C 334.201 900.113 281.548 999.714 162.092 1025.88 C 40.3899 1037.82 -37.1032 953.066 -148.867 942.099 C -258.567 918.071 -361.319 977.986 -473.764 928.739 M 690.765 -690.765 C 767.168 -604.786 880.284 -584.578 942.892 -477.059 C 992.428 -362.928 917.605 -261.327 941.96 -151.663 C 953.257 -39.8963 1060.1 44.2327 1047.55 168.527 C 1020.48 290.485 920.169 338.599 873.993 444.406 C 815.7 544.053 831.775 650.976 749.495 744.228 C 656.825 827.163 535.094 797.225 437.682 854.593 C 334.201 900.113 281.548 999.714 162.092 1025.88 C 40.3899 1037.82 -37.1032 953.066 -148.867 942.099 C -258.567 918.071 -361.319 977.986 -473.764 928.739 C -579.642 866.616 -604.786 767.168 -690.765 690.765" data-idx="16">
  
  /&gt;
</path>
</g><g data-idx="18" transform="matrix(0.9930673329684107,0.11754689358297692,-0.11754689358297692,0.9930673329684107,0,0)">
  
<path stroke-width="0.5" stroke="url(#lg)" fill="none" d="M 685.541 -685.541 C 761.365 -600.212 861.728 -580.036 923.931 -474.731 M 685.541 -685.541 C 761.365 -600.212 861.728 -580.036 923.931 -474.731 C 973.325 -362.844 941.91 -269.196 967.022 -156.62 M 685.541 -685.541 C 761.365 -600.212 861.728 -580.036 923.931 -474.731 C 973.325 -362.844 941.91 -269.196 967.022 -156.62 C 978.728 -41.8736 1045.76 40.7826 1033.71 163.415 M 685.541 -685.541 C 761.365 -600.212 861.728 -580.036 923.931 -474.731 C 973.325 -362.844 941.91 -269.196 967.022 -156.62 C 978.728 -41.8736 1045.76 40.7826 1033.71 163.415 C 1007.34 283.783 897.122 332.597 851.811 435.737 M 685.541 -685.541 C 761.365 -600.212 861.728 -580.036 923.931 -474.731 C 973.325 -362.844 941.91 -269.196 967.022 -156.62 C 978.728 -41.8736 1045.76 40.7826 1033.71 163.415 C 1007.34 283.783 897.122 332.597 851.811 435.737 C 794.692 532.836 809.617 641.223 728.637 731.938 M 685.541 -685.541 C 761.365 -600.212 861.728 -580.036 923.931 -474.731 C 973.325 -362.844 941.91 -269.196 967.022 -156.62 C 978.728 -41.8736 1045.76 40.7826 1033.71 163.415 C 1007.34 283.783 897.122 332.597 851.811 435.737 C 794.692 532.836 809.617 641.223 728.637 731.938 C 637.557 812.507 528.469 789.965 431.955 846.604 M 685.541 -685.541 C 761.365 -600.212 861.728 -580.036 923.931 -474.731 C 973.325 -362.844 941.91 -269.196 967.022 -156.62 C 978.728 -41.8736 1045.76 40.7826 1033.71 163.415 C 1007.34 283.783 897.122 332.597 851.811 435.737 C 794.692 532.836 809.617 641.223 728.637 731.938 C 637.557 812.507 528.469 789.965 431.955 846.604 C 329.453 891.507 277.067 990.039 158.779 1015.74 M 685.541 -685.541 C 761.365 -600.212 861.728 -580.036 923.931 -474.731 C 973.325 -362.844 941.91 -269.196 967.022 -156.62 C 978.728 -41.8736 1045.76 40.7826 1033.71 163.415 C 1007.34 283.783 897.122 332.597 851.811 435.737 C 794.692 532.836 809.617 641.223 728.637 731.938 C 637.557 812.507 528.469 789.965 431.955 846.604 C 329.453 891.507 277.067 990.039 158.779 1015.74 C 38.2911 1027.36 -37.025 952.989 -148.78 942.031 M 685.541 -685.541 C 761.365 -600.212 861.728 -580.036 923.931 -474.731 C 973.325 -362.844 941.91 -269.196 967.022 -156.62 C 978.728 -41.8736 1045.76 40.7826 1033.71 163.415 C 1007.34 283.783 897.122 332.597 851.811 435.737 C 794.692 532.836 809.617 641.223 728.637 731.938 C 637.557 812.507 528.469 789.965 431.955 846.604 C 329.453 891.507 277.067 990.039 158.779 1015.74 C 38.2911 1027.36 -37.025 952.989 -148.78 942.031 C -258.473 918.014 -359.716 976.299 -471.974 927.251 M 685.541 -685.541 C 761.365 -600.212 861.728 -580.036 923.931 -474.731 C 973.325 -362.844 941.91 -269.196 967.022 -156.62 C 978.728 -41.8736 1045.76 40.7826 1033.71 163.415 C 1007.34 283.783 897.122 332.597 851.811 435.737 C 794.692 532.836 809.617 641.223 728.637 731.938 C 637.557 812.507 528.469 789.965 431.955 846.604 C 329.453 891.507 277.067 990.039 158.779 1015.74 C 38.2911 1027.36 -37.025 952.989 -148.78 942.031 C -258.473 918.014 -359.716 976.299 -471.974 927.251 C -577.69 865.349 -600.212 761.365 -685.541 685.541" data-idx="20">
  
  /&gt;
</path>
</g><g data-idx="22" transform="matrix(0.995090210891396,0.09897207782055,-0.09897207782055,0.995090210891396,0,0)">
  
<path stroke-width="0.5" stroke="url(#lg)" fill="none" d="M 670.324 -670.324 C 744.466 -586.89 873.362 -582.094 935.726 -475.407 M 670.324 -670.324 C 744.466 -586.89 873.362 -582.094 935.726 -475.407 C 985.118 -362.129 925.737 -261.151 950.015 -150.532 M 670.324 -670.324 C 744.466 -586.89 873.362 -582.094 935.726 -475.407 C 985.118 -362.129 925.737 -261.151 950.015 -150.532 C 961.123 -37.8266 1017.95 41.5391 1006.01 160.898 M 670.324 -670.324 C 744.466 -586.89 873.362 -582.094 935.726 -475.407 C 985.118 -362.129 925.737 -261.151 950.015 -150.532 C 961.123 -37.8266 1017.95 41.5391 1006.01 160.898 C 980.126 278.027 892.733 331.798 847.546 434.427 M 670.324 -670.324 C 744.466 -586.89 873.362 -582.094 935.726 -475.407 C 985.118 -362.129 925.737 -261.151 950.015 -150.532 C 961.123 -37.8266 1017.95 41.5391 1006.01 160.898 C 980.126 278.027 892.733 331.798 847.546 434.427 C 790.61 531.034 814.202 639.762 733.362 731.027 M 670.324 -670.324 C 744.466 -586.89 873.362 -582.094 935.726 -475.407 C 985.118 -362.129 925.737 -261.151 950.015 -150.532 C 961.123 -37.8266 1017.95 41.5391 1006.01 160.898 C 980.126 278.027 892.733 331.798 847.546 434.427 C 790.61 531.034 814.202 639.762 733.362 731.027 C 642.356 812.157 527.242 785.385 431.276 841.912 M 670.324 -670.324 C 744.466 -586.89 873.362 -582.094 935.726 -475.407 C 985.118 -362.129 925.737 -261.151 950.015 -150.532 C 961.123 -37.8266 1017.95 41.5391 1006.01 160.898 C 980.126 278.027 892.733 331.798 847.546 434.427 C 790.61 531.034 814.202 639.762 733.362 731.027 C 642.356 812.157 527.242 785.385 431.276 841.912 C 329.33 886.767 283.814 1001.06 164.185 1027.48 M 670.324 -670.324 C 744.466 -586.89 873.362 -582.094 935.726 -475.407 C 985.118 -362.129 925.737 -261.151 950.015 -150.532 C 961.123 -37.8266 1017.95 41.5391 1006.01 160.898 C 980.126 278.027 892.733 331.798 847.546 434.427 C 790.61 531.034 814.202 639.762 733.362 731.027 C 642.356 812.157 527.242 785.385 431.276 841.912 C 329.33 886.767 283.814 1001.06 164.185 1027.48 C 42.2797 1039.66 -36.7234 939.831 -146.934 929 M 670.324 -670.324 C 744.466 -586.89 873.362 -582.094 935.726 -475.407 C 985.118 -362.129 925.737 -261.151 950.015 -150.532 C 961.123 -37.8266 1017.95 41.5391 1006.01 160.898 C 980.126 278.027 892.733 331.798 847.546 434.427 C 790.61 531.034 814.202 639.762 733.362 731.027 C 642.356 812.157 527.242 785.385 431.276 841.912 C 329.33 886.767 283.814 1001.06 164.185 1027.48 C 42.2797 1039.66 -36.7234 939.831 -146.934 929 C -255.108 905.291 -359.445 977.974 -471.902 928.947 M 670.324 -670.324 C 744.466 -586.89 873.362 -582.094 935.726 -475.407 C 985.118 -362.129 925.737 -261.151 950.015 -150.532 C 961.123 -37.8266 1017.95 41.5391 1006.01 160.898 C 980.126 278.027 892.733 331.798 847.546 434.427 C 790.61 531.034 814.202 639.762 733.362 731.027 C 642.356 812.157 527.242 785.385 431.276 841.912 C 329.33 886.767 283.814 1001.06 164.185 1027.48 C 42.2797 1039.66 -36.7234 939.831 -146.934 929 C -255.108 905.291 -359.445 977.974 -471.902 928.947 C -577.817 867.042 -586.89 744.466 -670.324 670.324" data-idx="24">
  
  /&gt;
</path>
</g><g data-idx="26" transform="matrix(0.9970047288031945,0.07734061510014477,-0.07734061510014477,0.9970047288031945,0,0)">
  
<path stroke-width="0.5" stroke="url(#lg)" fill="none" d="M 663.206 -663.206 C 736.56 -580.657 844.038 -565.611 904.668 -462.485 M 663.206 -663.206 C 736.56 -580.657 844.038 -565.611 904.668 -462.485 C 952.756 -352.947 907.775 -254.994 931.454 -146.529 M 663.206 -663.206 C 736.56 -580.657 844.038 -565.611 904.668 -462.485 C 952.756 -352.947 907.775 -254.994 931.454 -146.529 C 942.22 -36.0325 1015.47 42.5919 1003.42 161.652 M 663.206 -663.206 C 736.56 -580.657 844.038 -565.611 904.668 -462.485 C 952.756 -352.947 907.775 -254.994 931.454 -146.529 C 942.22 -36.0325 1015.47 42.5919 1003.42 161.652 C 977.465 278.471 882.573 325.714 838.171 427.192 M 663.206 -663.206 C 736.56 -580.657 844.038 -565.611 904.668 -462.485 C 952.756 -352.947 907.775 -254.994 931.454 -146.529 C 942.22 -36.0325 1015.47 42.5919 1003.42 161.652 C 977.465 278.471 882.573 325.714 838.171 427.192 C 782.15 522.747 800.973 630.675 721.293 720.447 M 663.206 -663.206 C 736.56 -580.657 844.038 -565.611 904.668 -462.485 C 952.756 -352.947 907.775 -254.994 931.454 -146.529 C 942.22 -36.0325 1015.47 42.5919 1003.42 161.652 C 977.465 278.471 882.573 325.714 838.171 427.192 C 782.15 522.747 800.973 630.675 721.293 720.447 C 631.614 800.233 520.651 778.095 425.587 833.897 M 663.206 -663.206 C 736.56 -580.657 844.038 -565.611 904.668 -462.485 C 952.756 -352.947 907.775 -254.994 931.454 -146.529 C 942.22 -36.0325 1015.47 42.5919 1003.42 161.652 C 977.465 278.471 882.573 325.714 838.171 427.192 C 782.15 522.747 800.973 630.675 721.293 720.447 C 631.614 800.233 520.651 778.095 425.587 833.897 C 324.623 878.139 280.491 989.613 162.23 1015.72 M 663.206 -663.206 C 736.56 -580.657 844.038 -565.611 904.668 -462.485 C 952.756 -352.947 907.775 -254.994 931.454 -146.529 C 942.22 -36.0325 1015.47 42.5919 1003.42 161.652 C 977.465 278.471 882.573 325.714 838.171 427.192 C 782.15 522.747 800.973 630.675 721.293 720.447 C 631.614 800.233 520.651 778.095 425.587 833.897 C 324.623 878.139 280.491 989.613 162.23 1015.72 C 41.72 1027.75 -38.3482 958.267 -150.715 947.117 M 663.206 -663.206 C 736.56 -580.657 844.038 -565.611 904.668 -462.485 C 952.756 -352.947 907.775 -254.994 931.454 -146.529 C 942.22 -36.0325 1015.47 42.5919 1003.42 161.652 C 977.465 278.471 882.573 325.714 838.171 427.192 C 782.15 522.747 800.973 630.675 721.293 720.447 C 631.614 800.233 520.651 778.095 425.587 833.897 C 324.623 878.139 280.491 989.613 162.23 1015.72 C 41.72 1027.75 -38.3482 958.267 -150.715 947.117 C -260.992 922.838 -356.283 957.438 -466.348 908.925 M 663.206 -663.206 C 736.56 -580.657 844.038 -565.611 904.668 -462.485 C 952.756 -352.947 907.775 -254.994 931.454 -146.529 C 942.22 -36.0325 1015.47 42.5919 1003.42 161.652 C 977.465 278.471 882.573 325.714 838.171 427.192 C 782.15 522.747 800.973 630.675 721.293 720.447 C 631.614 800.233 520.651 778.095 425.587 833.897 C 324.623 878.139 280.491 989.613 162.23 1015.72 C 41.72 1027.75 -38.3482 958.267 -150.715 947.117 C -260.992 922.838 -356.283 957.438 -466.348 908.925 C -569.948 847.812 -580.657 736.56 -663.206 663.206" data-idx="28">
  
  /&gt;
</path>
</g><g data-idx="30" transform="matrix(0.998598607465123,0.05292278496750999,-0.05292278496750999,0.998598607465123,0,0)">
  
<path stroke-width="0.5" stroke="url(#lg)" fill="none" d="M 666.768 -666.768 C 740.516 -583.776 835.605 -558.193 895.421 -456.109 M 666.768 -666.768 C 740.516 -583.776 835.605 -558.193 895.421 -456.109 C 942.824 -347.702 903.173 -255.057 926.891 -147.132 M 666.768 -666.768 C 740.516 -583.776 835.605 -558.193 895.421 -456.109 C 942.824 -347.702 903.173 -255.057 926.891 -147.132 C 937.76 -37.1681 1016.17 38.4203 1004.61 157.592 M 666.768 -666.768 C 740.516 -583.776 835.605 -558.193 895.421 -456.109 C 942.824 -347.702 903.173 -255.057 926.891 -147.132 C 937.76 -37.1681 1016.17 38.4203 1004.61 157.592 C 979.127 274.58 882.525 325.234 838.18 426.71 M 666.768 -666.768 C 740.516 -583.776 835.605 -558.193 895.421 -456.109 C 942.824 -347.702 903.173 -255.057 926.891 -147.132 C 937.76 -37.1681 1016.17 38.4203 1004.61 157.592 C 979.127 274.58 882.525 325.234 838.18 426.71 C 782.216 522.269 795.622 628.36 716.252 717.52 M 666.768 -666.768 C 740.516 -583.776 835.605 -558.193 895.421 -456.109 C 942.824 -347.702 903.173 -255.057 926.891 -147.132 C 937.76 -37.1681 1016.17 38.4203 1004.61 157.592 C 979.127 274.58 882.525 325.234 838.18 426.71 C 782.216 522.269 795.622 628.36 716.252 717.52 C 626.951 796.733 524.42 787.483 428.227 843.664 M 666.768 -666.768 C 740.516 -583.776 835.605 -558.193 895.421 -456.109 C 942.824 -347.702 903.173 -255.057 926.891 -147.132 C 937.76 -37.1681 1016.17 38.4203 1004.61 157.592 C 979.127 274.58 882.525 325.234 838.18 426.71 C 782.216 522.269 795.622 628.36 716.252 717.52 C 626.951 796.733 524.42 787.483 428.227 843.664 C 326.096 888.148 273.508 976.663 156.818 1002.04 M 666.768 -666.768 C 740.516 -583.776 835.605 -558.193 895.421 -456.109 C 942.824 -347.702 903.173 -255.057 926.891 -147.132 C 937.76 -37.1681 1016.17 38.4203 1004.61 157.592 C 979.127 274.58 882.525 325.234 838.18 426.71 C 782.216 522.269 795.622 628.36 716.252 717.52 C 626.951 796.733 524.42 787.483 428.227 843.664 C 326.096 888.148 273.508 976.663 156.818 1002.04 C 37.9536 1013.53 -35.1668 940.129 -145.423 929.479 M 666.768 -666.768 C 740.516 -583.776 835.605 -558.193 895.421 -456.109 C 942.824 -347.702 903.173 -255.057 926.891 -147.132 C 937.76 -37.1681 1016.17 38.4203 1004.61 157.592 C 979.127 274.58 882.525 325.234 838.18 426.71 C 782.216 522.269 795.622 628.36 716.252 717.52 C 626.951 796.733 524.42 787.483 428.227 843.664 C 326.096 888.148 273.508 976.663 156.818 1002.04 C 37.9536 1013.53 -35.1668 940.129 -145.423 929.479 C -253.664 905.944 -345.112 942.431 -453.491 895.335 M 666.768 -666.768 C 740.516 -583.776 835.605 -558.193 895.421 -456.109 C 942.824 -347.702 903.173 -255.057 926.891 -147.132 C 937.76 -37.1681 1016.17 38.4203 1004.61 157.592 C 979.127 274.58 882.525 325.234 838.18 426.71 C 782.216 522.269 795.622 628.36 716.252 717.52 C 626.951 796.733 524.42 787.483 428.227 843.664 C 326.096 888.148 273.508 976.663 156.818 1002.04 C 37.9536 1013.53 -35.1668 940.129 -145.423 929.479 C -253.664 905.944 -345.112 942.431 -453.491 895.335 C -555.582 835.826 -583.776 740.516 -666.768 666.768" data-idx="32">
  
  /&gt;
</path>
</g><g data-idx="34" transform="matrix(0.9996528891406953,0.026345801044203896,-0.026345801044203896,0.9996528891406953,0,0)">
  
<path stroke-width="0.5" stroke="url(#lg)" fill="none" d="M 664.518 -664.518 C 738.018 -581.806 834.156 -553.089 893.382 -451.21 M 664.518 -664.518 C 738.018 -581.806 834.156 -553.089 893.382 -451.21 C 940.224 -343.077 898.228 -253.146 921.757 -145.816 M 664.518 -664.518 C 738.018 -581.806 834.156 -553.089 893.382 -451.21 C 940.224 -343.077 898.228 -253.146 921.757 -145.816 C 932.506 -36.4648 999.425 35.0077 988.383 152.235 M 664.518 -664.518 C 738.018 -581.806 834.156 -553.089 893.382 -451.21 C 940.224 -343.077 898.228 -253.146 921.757 -145.816 C 932.506 -36.4648 999.425 35.0077 988.383 152.235 C 963.639 267.352 871.047 320.541 827.334 420.7 M 664.518 -664.518 C 738.018 -581.806 834.156 -553.089 893.382 -451.21 C 940.224 -343.077 898.228 -253.146 921.757 -145.816 C 932.506 -36.4648 999.425 35.0077 988.383 152.235 C 963.639 267.352 871.047 320.541 827.334 420.7 C 772.151 515.026 798.53 629.099 719.052 718.595 M 664.518 -664.518 C 738.018 -581.806 834.156 -553.089 893.382 -451.21 C 940.224 -343.077 898.228 -253.146 921.757 -145.816 C 932.506 -36.4648 999.425 35.0077 988.383 152.235 C 963.639 267.352 871.047 320.541 827.334 420.7 C 772.151 515.026 798.53 629.099 719.052 718.595 C 629.606 798.13 520.455 783.168 424.796 838.913 M 664.518 -664.518 C 738.018 -581.806 834.156 -553.089 893.382 -451.21 C 940.224 -343.077 898.228 -253.146 921.757 -145.816 C 932.506 -36.4648 999.425 35.0077 988.383 152.235 C 963.639 267.352 871.047 320.541 827.334 420.7 C 772.151 515.026 798.53 629.099 719.052 718.595 C 629.606 798.13 520.455 783.168 424.796 838.913 C 323.248 883.027 275.714 975.951 159.092 1001.59 M 664.518 -664.518 C 738.018 -581.806 834.156 -553.089 893.382 -451.21 C 940.224 -343.077 898.228 -253.146 921.757 -145.816 C 932.506 -36.4648 999.425 35.0077 988.383 152.235 C 963.639 267.352 871.047 320.541 827.334 420.7 C 772.151 515.026 798.53 629.099 719.052 718.595 C 629.606 798.13 520.455 783.168 424.796 838.913 C 323.248 883.027 275.714 975.951 159.092 1001.59 C 40.2651 1013.35 -36.6707 935.72 -146.399 924.924 M 664.518 -664.518 C 738.018 -581.806 834.156 -553.089 893.382 -451.21 C 940.224 -343.077 898.228 -253.146 921.757 -145.816 C 932.506 -36.4648 999.425 35.0077 988.383 152.235 C 963.639 267.352 871.047 320.541 827.334 420.7 C 772.151 515.026 798.53 629.099 719.052 718.595 C 629.606 798.13 520.455 783.168 424.796 838.913 C 323.248 883.027 275.714 975.951 159.092 1001.59 C 40.2651 1013.35 -36.6707 935.72 -146.399 924.924 C -254.097 901.305 -340.282 926.599 -446.834 880.181 M 664.518 -664.518 C 738.018 -581.806 834.156 -553.089 893.382 -451.21 C 940.224 -343.077 898.228 -253.146 921.757 -145.816 C 932.506 -36.4648 999.425 35.0077 988.383 152.235 C 963.639 267.352 871.047 320.541 827.334 420.7 C 772.151 515.026 798.53 629.099 719.052 718.595 C 629.606 798.13 520.455 783.168 424.796 838.913 C 323.248 883.027 275.714 975.951 159.092 1001.59 C 40.2651 1013.35 -36.6707 935.72 -146.399 924.924 C -254.097 901.305 -340.282 926.599 -446.834 880.181 C -547.191 821.56 -581.806 738.018 -664.518 664.518" data-idx="36">
  
  /&gt;
</path>
</g><g data-idx="38" transform="matrix(0.999999024691671,-0.0013966444453684538,0.0013966444453684538,0.999999024691671,0,0)">
  
<path stroke-width="0.5" stroke="url(#lg)" fill="none" d="M 656.996 -656.996 C 729.664 -575.221 827.537 -557.554 887.334 -456.423 M 656.996 -656.996 C 729.664 -575.221 827.537 -557.554 887.334 -456.423 C 934.831 -348.964 881.24 -247.324 904.202 -142.031 M 656.996 -656.996 C 729.664 -575.221 827.537 -557.554 887.334 -456.423 C 934.831 -348.964 881.24 -247.324 904.202 -142.031 C 914.628 -34.7691 1011.18 39.6714 999.505 158.247 M 656.996 -656.996 C 729.664 -575.221 827.537 -557.554 887.334 -456.423 C 934.831 -348.964 881.24 -247.324 904.202 -142.031 C 914.628 -34.7691 1011.18 39.6714 999.505 158.247 C 973.977 274.63 867.099 317.937 823.719 417.65 M 656.996 -656.996 C 729.664 -575.221 827.537 -557.554 887.334 -456.423 C 934.831 -348.964 881.24 -247.324 904.202 -142.031 C 914.628 -34.7691 1011.18 39.6714 999.505 158.247 C 973.977 274.63 867.099 317.937 823.719 417.65 C 768.92 511.573 783.772 620.387 705.421 708.21 M 656.996 -656.996 C 729.664 -575.221 827.537 -557.554 887.334 -456.423 C 934.831 -348.964 881.24 -247.324 904.202 -142.031 C 914.628 -34.7691 1011.18 39.6714 999.505 158.247 C 973.977 274.63 867.099 317.937 823.719 417.65 C 768.92 511.573 783.772 620.387 705.421 708.21 C 617.29 786.214 508.156 755.213 415.868 809.706 M 656.996 -656.996 C 729.664 -575.221 827.537 -557.554 887.334 -456.423 C 934.831 -348.964 881.24 -247.324 904.202 -142.031 C 914.628 -34.7691 1011.18 39.6714 999.505 158.247 C 973.977 274.63 867.099 317.937 823.719 417.65 C 768.92 511.573 783.772 620.387 705.421 708.21 C 617.29 786.214 508.156 755.213 415.868 809.706 C 317.815 852.974 270.783 966.278 155.332 991.408 M 656.996 -656.996 C 729.664 -575.221 827.537 -557.554 887.334 -456.423 C 934.831 -348.964 881.24 -247.324 904.202 -142.031 C 914.628 -34.7691 1011.18 39.6714 999.505 158.247 C 973.977 274.63 867.099 317.937 823.719 417.65 C 768.92 511.573 783.772 620.387 705.421 708.21 C 617.29 786.214 508.156 755.213 415.868 809.706 C 317.815 852.974 270.783 966.278 155.332 991.408 C 37.7279 1002.79 -38.7385 917.563 -146.318 906.65 M 656.996 -656.996 C 729.664 -575.221 827.537 -557.554 887.334 -456.423 C 934.831 -348.964 881.24 -247.324 904.202 -142.031 C 914.628 -34.7691 1011.18 39.6714 999.505 158.247 C 973.977 274.63 867.099 317.937 823.719 417.65 C 768.92 511.573 783.772 620.387 705.421 708.21 C 617.29 786.214 508.156 755.213 415.868 809.706 C 317.815 852.974 270.783 966.278 155.332 991.408 C 37.7279 1002.79 -38.7385 917.563 -146.318 906.65 C -251.869 883.168 -341.859 930.85 -448.899 884.216 M 656.996 -656.996 C 729.664 -575.221 827.537 -557.554 887.334 -456.423 C 934.831 -348.964 881.24 -247.324 904.202 -142.031 C 914.628 -34.7691 1011.18 39.6714 999.505 158.247 C 973.977 274.63 867.099 317.937 823.719 417.65 C 768.92 511.573 783.772 620.387 705.421 708.21 C 617.29 786.214 508.156 755.213 415.868 809.706 C 317.815 852.974 270.783 966.278 155.332 991.408 C 37.7279 1002.79 -38.7385 917.563 -146.318 906.65 C -251.869 883.168 -341.859 930.85 -448.899 884.216 C -549.716 825.325 -575.221 729.664 -656.996 656.996" data-idx="40">
  
  /&gt;
</path>
</g><g data-idx="42" transform="matrix(0.9995772117828211,-0.029075723283888626,0.029075723283888626,0.9995772117828211,0,0)">
  
<path stroke-width="0.5" stroke="url(#lg)" fill="none" d="M 649.206 -649.206 C 721.012 -568.4 827.01 -554.358 886.435 -453.311 M 649.206 -649.206 C 721.012 -568.4 827.01 -554.358 886.435 -453.311 C 933.572 -345.979 867.744 -247.404 890.809 -143.696 M 649.206 -649.206 C 721.012 -568.4 827.01 -554.358 886.435 -453.311 C 933.572 -345.979 867.744 -247.404 890.809 -143.696 C 901.524 -37.997 971.277 34.5011 960.489 148.423 M 649.206 -649.206 C 721.012 -568.4 827.01 -554.358 886.435 -453.311 C 933.572 -345.979 867.744 -247.404 890.809 -143.696 C 901.524 -37.997 971.277 34.5011 960.489 148.423 C 936.386 260.288 868.226 323.201 824.22 423.01 M 649.206 -649.206 C 721.012 -568.4 827.01 -554.358 886.435 -453.311 C 933.572 -345.979 867.744 -247.404 890.809 -143.696 C 901.524 -37.997 971.277 34.5011 960.489 148.423 C 936.386 260.288 868.226 323.201 824.22 423.01 C 768.787 516.954 782.093 616.114 704.255 703.769 M 649.206 -649.206 C 721.012 -568.4 827.01 -554.358 886.435 -453.311 C 933.572 -345.979 867.744 -247.404 890.809 -143.696 C 901.524 -37.997 971.277 34.5011 960.489 148.423 C 936.386 260.288 868.226 323.201 824.22 423.01 C 768.787 516.954 782.093 616.114 704.255 703.769 C 616.655 781.667 503.006 751.992 411.132 805.901 M 649.206 -649.206 C 721.012 -568.4 827.01 -554.358 886.435 -453.311 C 933.572 -345.979 867.744 -247.404 890.809 -143.696 C 901.524 -37.997 971.277 34.5011 960.489 148.423 C 936.386 260.288 868.226 323.201 824.22 423.01 C 768.787 516.954 782.093 616.114 704.255 703.769 C 616.655 781.667 503.006 751.992 411.132 805.901 C 313.559 848.638 268.531 954.069 154.531 979.018 M 649.206 -649.206 C 721.012 -568.4 827.01 -554.358 886.435 -453.311 C 933.572 -345.979 867.744 -247.404 890.809 -143.696 C 901.524 -37.997 971.277 34.5011 960.489 148.423 C 936.386 260.288 868.226 323.201 824.22 423.01 C 768.787 516.954 782.093 616.114 704.255 703.769 C 616.655 781.667 503.006 751.992 411.132 805.901 C 313.559 848.638 268.531 954.069 154.531 979.018 C 38.3885 990.395 -33.5084 916.126 -140.955 905.837 M 649.206 -649.206 C 721.012 -568.4 827.01 -554.358 886.435 -453.311 C 933.572 -345.979 867.744 -247.404 890.809 -143.696 C 901.524 -37.997 971.277 34.5011 960.489 148.423 C 936.386 260.288 868.226 323.201 824.22 423.01 C 768.787 516.954 782.093 616.114 704.255 703.769 C 616.655 781.667 503.006 751.992 411.132 805.901 C 313.559 848.638 268.531 954.069 154.531 979.018 C 38.3885 990.395 -33.5084 916.126 -140.955 905.837 C -246.448 882.991 -343.322 930.754 -450.34 883.949 M 649.206 -649.206 C 721.012 -568.4 827.01 -554.358 886.435 -453.311 C 933.572 -345.979 867.744 -247.404 890.809 -143.696 C 901.524 -37.997 971.277 34.5011 960.489 148.423 C 936.386 260.288 868.226 323.201 824.22 423.01 C 768.787 516.954 782.093 616.114 704.255 703.769 C 616.655 781.667 503.006 751.992 411.132 805.901 C 313.559 848.638 268.531 954.069 154.531 979.018 C 38.3885 990.395 -33.5084 916.126 -140.955 905.837 C -246.448 882.991 -343.322 930.754 -450.34 883.949 C -551.116 824.89 -568.4 721.012 -649.206 649.206" data-idx="44">
  
  /&gt;
</path>
</g><g data-idx="46" transform="matrix(0.9984600240808433,-0.055475943547466364,0.055475943547466364,0.9984600240808433,0,0)">
  
<path stroke-width="0.5" stroke="url(#lg)" fill="none" d="M 643.436 -643.436 C 714.604 -563.348 807.498 -535.437 864.835 -436.815 M 643.436 -643.436 C 714.604 -563.348 807.498 -535.437 864.835 -436.815 C 910.182 -332.137 859.372 -242.784 881.952 -140.093 M 643.436 -643.436 C 714.604 -563.348 807.498 -535.437 864.835 -436.815 C 910.182 -332.137 859.372 -242.784 881.952 -140.093 C 892.305 -35.4592 966.759 39.1466 955.457 152.506 M 643.436 -643.436 C 714.604 -563.348 807.498 -535.437 864.835 -436.815 C 910.182 -332.137 859.372 -242.784 881.952 -140.093 C 892.305 -35.4592 966.759 39.1466 955.457 152.506 C 930.909 263.75 832.969 309.989 790.76 405.745 M 643.436 -643.436 C 714.604 -563.348 807.498 -535.437 864.835 -436.815 C 910.182 -332.137 859.372 -242.784 881.952 -140.093 C 892.305 -35.4592 966.759 39.1466 955.457 152.506 C 930.909 263.75 832.969 309.989 790.76 405.745 C 737.588 495.876 767.528 603.853 691.232 689.88 M 643.436 -643.436 C 714.604 -563.348 807.498 -535.437 864.835 -436.815 C 910.182 -332.137 859.372 -242.784 881.952 -140.093 C 892.305 -35.4592 966.759 39.1466 955.457 152.506 C 930.909 263.75 832.969 309.989 790.76 405.745 C 737.588 495.876 767.528 603.853 691.232 689.88 C 605.354 766.344 504.683 754.643 412.486 808.731 M 643.436 -643.436 C 714.604 -563.348 807.498 -535.437 864.835 -436.815 C 910.182 -332.137 859.372 -242.784 881.952 -140.093 C 892.305 -35.4592 966.759 39.1466 955.457 152.506 C 930.909 263.75 832.969 309.989 790.76 405.745 C 737.588 495.876 767.528 603.853 691.232 689.88 C 605.354 766.344 504.683 754.643 412.486 808.731 C 314.571 851.608 263.01 946.354 149.955 970.707 M 643.436 -643.436 C 714.604 -563.348 807.498 -535.437 864.835 -436.815 C 910.182 -332.137 859.372 -242.784 881.952 -140.093 C 892.305 -35.4592 966.759 39.1466 955.457 152.506 C 930.909 263.75 832.969 309.989 790.76 405.745 C 737.588 495.876 767.528 603.853 691.232 689.88 C 605.354 766.344 504.683 754.643 412.486 808.731 C 314.571 851.608 263.01 946.354 149.955 970.707 C 34.8209 981.604 -35.1878 892.176 -139.808 881.856 M 643.436 -643.436 C 714.604 -563.348 807.498 -535.437 864.835 -436.815 C 910.182 -332.137 859.372 -242.784 881.952 -140.093 C 892.305 -35.4592 966.759 39.1466 955.457 152.506 C 930.909 263.75 832.969 309.989 790.76 405.745 C 737.588 495.876 767.528 603.853 691.232 689.88 C 605.354 766.344 504.683 754.643 412.486 808.731 C 314.571 851.608 263.01 946.354 149.955 970.707 C 34.8209 981.604 -35.1878 892.176 -139.808 881.856 C -242.49 859.31 -338.14 919.28 -443.846 873.164 M 643.436 -643.436 C 714.604 -563.348 807.498 -535.437 864.835 -436.815 C 910.182 -332.137 859.372 -242.784 881.952 -140.093 C 892.305 -35.4592 966.759 39.1466 955.457 152.506 C 930.909 263.75 832.969 309.989 790.76 405.745 C 737.588 495.876 767.528 603.853 691.232 689.88 C 605.354 766.344 504.683 754.643 412.486 808.731 C 314.571 851.608 263.01 946.354 149.955 970.707 C 34.8209 981.604 -35.1878 892.176 -139.808 881.856 C -242.49 859.31 -338.14 919.28 -443.846 873.164 C -543.398 814.943 -563.348 714.604 -643.436 643.436" data-idx="48">
  
  /&gt;
</path>
</g><g data-idx="50" transform="matrix(0.9968239442320789,-0.079636826943327,0.079636826943327,0.9968239442320789,0,0)">
  
<path stroke-width="0.5" stroke="url(#lg)" fill="none" d="M 639.226 -639.226 C 709.928 -559.662 814.011 -546.6 872.614 -447.135 M 639.226 -639.226 C 709.928 -559.662 814.011 -546.6 872.614 -447.135 C 919.121 -341.471 870.219 -242.982 892.746 -139.015 M 639.226 -639.226 C 709.928 -559.662 814.011 -546.6 872.614 -447.135 C 919.121 -341.471 870.219 -242.982 892.746 -139.015 C 902.897 -33.1202 963.688 38.5669 952.475 151.569 M 639.226 -639.226 C 709.928 -559.662 814.011 -546.6 872.614 -447.135 C 919.121 -341.471 870.219 -242.982 892.746 -139.015 C 902.897 -33.1202 963.688 38.5669 952.475 151.569 C 928.058 262.47 839.017 308.875 796.897 405.35 M 639.226 -639.226 C 709.928 -559.662 814.011 -546.6 872.614 -447.135 C 919.121 -341.471 870.219 -242.982 892.746 -139.015 C 902.897 -33.1202 963.688 38.5669 952.475 151.569 C 928.058 262.47 839.017 308.875 796.897 405.35 C 743.729 496.206 759.67 596.762 684.262 681.915 M 639.226 -639.226 C 709.928 -559.662 814.011 -546.6 872.614 -447.135 C 919.121 -341.471 870.219 -242.982 892.746 -139.015 C 902.897 -33.1202 963.688 38.5669 952.475 151.569 C 928.058 262.47 839.017 308.875 796.897 405.35 C 743.729 496.206 759.67 596.762 684.262 681.915 C 599.369 757.615 500.467 751.213 408.703 804.83 M 639.226 -639.226 C 709.928 -559.662 814.011 -546.6 872.614 -447.135 C 919.121 -341.471 870.219 -242.982 892.746 -139.015 C 902.897 -33.1202 963.688 38.5669 952.475 151.569 C 928.058 262.47 839.017 308.875 796.897 405.35 C 743.729 496.206 759.67 596.762 684.262 681.915 C 599.369 757.615 500.467 751.213 408.703 804.83 C 311.272 847.289 260.274 936.345 148.414 960.446 M 639.226 -639.226 C 709.928 -559.662 814.011 -546.6 872.614 -447.135 C 919.121 -341.471 870.219 -242.982 892.746 -139.015 C 902.897 -33.1202 963.688 38.5669 952.475 151.569 C 928.058 262.47 839.017 308.875 796.897 405.35 C 743.729 496.206 759.67 596.762 684.262 681.915 C 599.369 757.615 500.467 751.213 408.703 804.83 C 311.272 847.289 260.274 936.345 148.414 960.446 C 34.4974 971.233 -35.8649 896.419 -140.979 885.99 M 639.226 -639.226 C 709.928 -559.662 814.011 -546.6 872.614 -447.135 C 919.121 -341.471 870.219 -242.982 892.746 -139.015 C 902.897 -33.1202 963.688 38.5669 952.475 151.569 C 928.058 262.47 839.017 308.875 796.897 405.35 C 743.729 496.206 759.67 596.762 684.262 681.915 C 599.369 757.615 500.467 751.213 408.703 804.83 C 311.272 847.289 260.274 936.345 148.414 960.446 C 34.4974 971.233 -35.8649 896.419 -140.979 885.99 C -244.139 863.279 -340.093 920.408 -445.918 874.055 M 639.226 -639.226 C 709.928 -559.662 814.011 -546.6 872.614 -447.135 C 919.121 -341.471 870.219 -242.982 892.746 -139.015 C 902.897 -33.1202 963.688 38.5669 952.475 151.569 C 928.058 262.47 839.017 308.875 796.897 405.35 C 743.729 496.206 759.67 596.762 684.262 681.915 C 599.369 757.615 500.467 751.213 408.703 804.83 C 311.272 847.289 260.274 936.345 148.414 960.446 C 34.4974 971.233 -35.8649 896.419 -140.979 885.99 C -244.139 863.279 -340.093 920.408 -445.918 874.055 C -545.561 815.584 -559.662 709.928 -639.226 639.226" data-idx="52">
  
  /&gt;
</path>
</g><g data-idx="54" transform="matrix(0.9948895119673881,-0.10096959432072859,0.10096959432072859,0.9948895119673881,0,0)">
  
<path stroke-width="0.5" stroke="url(#lg)" fill="none" d="M 620.646 -620.646 C 689.293 -543.395 785.776 -525.605 842.108 -429.604 M 620.646 -620.646 C 689.293 -543.395 785.776 -525.605 842.108 -429.604 C 886.765 -327.647 846.609 -238.688 868.795 -137.525 M 620.646 -620.646 C 689.293 -543.395 785.776 -525.605 842.108 -429.604 C 886.765 -327.647 846.609 -238.688 868.795 -137.525 C 878.938 -34.4557 960.26 38.3438 949.097 150.945 M 620.646 -620.646 C 689.293 -543.395 785.776 -525.605 842.108 -429.604 C 886.765 -327.647 846.609 -238.688 868.795 -137.525 C 878.938 -34.4557 960.26 38.3438 949.097 150.945 C 924.777 261.453 847.851 311.526 805.358 409.02 M 620.646 -620.646 C 689.293 -543.395 785.776 -525.605 842.108 -429.604 C 886.765 -327.647 846.609 -238.688 868.795 -137.525 C 878.938 -34.4557 960.26 38.3438 949.097 150.945 C 924.777 261.453 847.851 311.526 805.358 409.02 C 751.701 500.845 766.974 601.376 690.974 687.356 M 620.646 -620.646 C 689.293 -543.395 785.776 -525.605 842.108 -429.604 C 886.765 -327.647 846.609 -238.688 868.795 -137.525 C 878.938 -34.4557 960.26 38.3438 949.097 150.945 C 924.777 261.453 847.851 311.526 805.358 409.02 C 751.701 500.845 766.974 601.376 690.974 687.356 C 605.394 763.806 499.813 744.047 408.896 797.636 M 620.646 -620.646 C 689.293 -543.395 785.776 -525.605 842.108 -429.604 C 886.765 -327.647 846.609 -238.688 868.795 -137.525 C 878.938 -34.4557 960.26 38.3438 949.097 150.945 C 924.777 261.453 847.851 311.526 805.358 409.02 C 751.701 500.845 766.974 601.376 690.974 687.356 C 605.394 763.806 499.813 744.047 408.896 797.636 C 312.309 840.168 257.613 915.505 148.222 939.438 M 620.646 -620.646 C 689.293 -543.395 785.776 -525.605 842.108 -429.604 C 886.765 -327.647 846.609 -238.688 868.795 -137.525 C 878.938 -34.4557 960.26 38.3438 949.097 150.945 C 924.777 261.453 847.851 311.526 805.358 409.02 C 751.701 500.845 766.974 601.376 690.974 687.356 C 605.394 763.806 499.813 744.047 408.896 797.636 C 312.309 840.168 257.613 915.505 148.222 939.438 C 36.775 950.348 -36.6028 905.522 -142.782 894.943 M 620.646 -620.646 C 689.293 -543.395 785.776 -525.605 842.108 -429.604 C 886.765 -327.647 846.609 -238.688 868.795 -137.525 C 878.938 -34.4557 960.26 38.3438 949.097 150.945 C 924.777 261.453 847.851 311.526 805.358 409.02 C 751.701 500.845 766.974 601.376 690.974 687.356 C 605.394 763.806 499.813 744.047 408.896 797.636 C 312.309 840.168 257.613 915.505 148.222 939.438 C 36.775 950.348 -36.6028 905.522 -142.782 894.943 C -246.981 871.957 -338.74 917.475 -444.229 871.301 M 620.646 -620.646 C 689.293 -543.395 785.776 -525.605 842.108 -429.604 C 886.765 -327.647 846.609 -238.688 868.795 -137.525 C 878.938 -34.4557 960.26 38.3438 949.097 150.945 C 924.777 261.453 847.851 311.526 805.358 409.02 C 751.701 500.845 766.974 601.376 690.974 687.356 C 605.394 763.806 499.813 744.047 408.896 797.636 C 312.309 840.168 257.613 915.505 148.222 939.438 C 36.775 950.348 -36.6028 905.522 -142.782 894.943 C -246.981 871.957 -338.74 917.475 -444.229 871.301 C -543.56 813.048 -543.395 689.293 -620.646 620.646" data-idx="56">
  
  /&gt;
</path>
</g><g data-idx="58" transform="matrix(0.9928660778200289,-0.11923485863736424,0.11923485863736424,0.9928660778200289,0,0)">
  
<path stroke-width="0.5" stroke="url(#lg)" fill="none" d="M 624.654 -624.654 C 693.745 -546.904 795.869 -529.147 852.547 -431.935 M 624.654 -624.654 C 693.745 -546.904 795.869 -529.147 852.547 -431.935 C 897.406 -328.735 832.724 -235.745 854.661 -136.235 M 624.654 -624.654 C 693.745 -546.904 795.869 -529.147 852.547 -431.935 C 897.406 -328.735 832.724 -235.745 854.661 -136.235 C 864.749 -34.8357 934.125 37.4652 923.247 147 M 624.654 -624.654 C 693.745 -546.904 795.869 -529.147 852.547 -431.935 C 897.406 -328.735 832.724 -235.745 854.661 -136.235 C 864.749 -34.8357 934.125 37.4652 923.247 147 C 899.569 254.497 830.873 308.054 788.906 403.577 M 624.654 -624.654 C 693.745 -546.904 795.869 -529.147 852.547 -431.935 C 897.406 -328.735 832.724 -235.745 854.661 -136.235 C 864.749 -34.8357 934.125 37.4652 923.247 147 C 899.569 254.497 830.873 308.054 788.906 403.577 C 736.002 493.505 750.103 588.529 675.729 672.615 M 624.654 -624.654 C 693.745 -546.904 795.869 -529.147 852.547 -431.935 C 897.406 -328.735 832.724 -235.745 854.661 -136.235 C 864.749 -34.8357 934.125 37.4652 923.247 147 C 899.569 254.497 830.873 308.054 788.906 403.577 C 736.002 493.505 750.103 588.529 675.729 672.615 C 591.988 747.376 492.152 741.919 401.538 794.623 M 624.654 -624.654 C 693.745 -546.904 795.869 -529.147 852.547 -431.935 C 897.406 -328.735 832.724 -235.745 854.661 -136.235 C 864.749 -34.8357 934.125 37.4652 923.247 147 C 899.569 254.497 830.873 308.054 788.906 403.577 C 736.002 493.505 750.103 588.529 675.729 672.615 C 591.988 747.376 492.152 741.919 401.538 794.623 C 305.357 836.311 258.276 914.609 148.985 938.626 M 624.654 -624.654 C 693.745 -546.904 795.869 -529.147 852.547 -431.935 C 897.406 -328.735 832.724 -235.745 854.661 -136.235 C 864.749 -34.8357 934.125 37.4652 923.247 147 C 899.569 254.497 830.873 308.054 788.906 403.577 C 736.002 493.505 750.103 588.529 675.729 672.615 C 591.988 747.376 492.152 741.919 401.538 794.623 C 305.357 836.311 258.276 914.609 148.985 938.626 C 37.6285 949.631 -35.1799 867.695 -136.923 857.545 M 624.654 -624.654 C 693.745 -546.904 795.869 -529.147 852.547 -431.935 C 897.406 -328.735 832.724 -235.745 854.661 -136.235 C 864.749 -34.8357 934.125 37.4652 923.247 147 C 899.569 254.497 830.873 308.054 788.906 403.577 C 736.002 493.505 750.103 588.529 675.729 672.615 C 591.988 747.376 492.152 741.919 401.538 794.623 C 305.357 836.311 258.276 914.609 148.985 938.626 C 37.6285 949.631 -35.1799 867.695 -136.923 857.545 C -236.767 835.508 -325.448 886.737 -427.417 842.338 M 624.654 -624.654 C 693.745 -546.904 795.869 -529.147 852.547 -431.935 C 897.406 -328.735 832.724 -235.745 854.661 -136.235 C 864.749 -34.8357 934.125 37.4652 923.247 147 C 899.569 254.497 830.873 308.054 788.906 403.577 C 736.002 493.505 750.103 588.529 675.729 672.615 C 591.988 747.376 492.152 741.919 401.538 794.623 C 305.357 836.311 258.276 914.609 148.985 938.626 C 37.6285 949.631 -35.1799 867.695 -136.923 857.545 C -236.767 835.508 -325.448 886.737 -427.417 842.338 C -523.46 786.262 -546.904 693.745 -624.654 624.654" data-idx="60">
  
  /&gt;
</path>
</g><g data-idx="62" transform="matrix(0.9909207619821246,-0.1344471772584515,0.1344471772584515,0.9909207619821246,0,0)">
  
<path stroke-width="0.5" stroke="url(#lg)" fill="none" d="M 613.72 -613.72 C 681.601 -537.331 788.593 -525.181 844.856 -428.852 M 613.72 -613.72 C 681.601 -537.331 788.593 -525.181 844.856 -428.852 C 889.406 -326.577 835.896 -236.044 857.845 -136.159 M 613.72 -613.72 C 681.601 -537.331 788.593 -525.181 844.856 -428.852 C 889.406 -326.577 835.896 -236.044 857.845 -136.159 C 867.903 -34.3865 951.933 39.3201 940.713 150.935 M 613.72 -613.72 C 681.601 -537.331 788.593 -525.181 844.856 -428.852 C 889.406 -326.577 835.896 -236.044 857.845 -136.159 C 867.903 -34.3865 951.933 39.3201 940.713 150.935 C 916.452 260.458 803.04 297.459 762.511 389.784 M 613.72 -613.72 C 681.601 -537.331 788.593 -525.181 844.856 -428.852 C 889.406 -326.577 835.896 -236.044 857.845 -136.159 C 867.903 -34.3865 951.933 39.3201 940.713 150.935 C 916.452 260.458 803.04 297.459 762.511 389.784 C 711.412 476.706 737.931 584.561 664.108 667.244 M 613.72 -613.72 C 681.601 -537.331 788.593 -525.181 844.856 -428.852 C 889.406 -326.577 835.896 -236.044 857.845 -136.159 C 867.903 -34.3865 951.933 39.3201 940.713 150.935 C 916.452 260.458 803.04 297.459 762.511 389.784 C 711.412 476.706 737.931 584.561 664.108 667.244 C 581.079 740.677 490.103 737.034 400.077 789.531 M 613.72 -613.72 C 681.601 -537.331 788.593 -525.181 844.856 -428.852 C 889.406 -326.577 835.896 -236.044 857.845 -136.159 C 867.903 -34.3865 951.933 39.3201 940.713 150.935 C 916.452 260.458 803.04 297.459 762.511 389.784 C 711.412 476.706 737.931 584.561 664.108 667.244 C 581.079 740.677 490.103 737.034 400.077 789.531 C 304.504 831.082 255.526 899.512 148.028 923.311 M 613.72 -613.72 C 681.601 -537.331 788.593 -525.181 844.856 -428.852 C 889.406 -326.577 835.896 -236.044 857.845 -136.159 C 867.903 -34.3865 951.933 39.3201 940.713 150.935 C 916.452 260.458 803.04 297.459 762.511 389.784 C 711.412 476.706 737.931 584.561 664.108 667.244 C 581.079 740.677 490.103 737.034 400.077 789.531 C 304.504 831.082 255.526 899.512 148.028 923.311 C 38.4787 934.31 -32.2998 876.621 -135.112 866.749 M 613.72 -613.72 C 681.601 -537.331 788.593 -525.181 844.856 -428.852 C 889.406 -326.577 835.896 -236.044 857.845 -136.159 C 867.903 -34.3865 951.933 39.3201 940.713 150.935 C 916.452 260.458 803.04 297.459 762.511 389.784 C 711.412 476.706 737.931 584.561 664.108 667.244 C 581.079 740.677 490.103 737.034 400.077 789.531 C 304.504 831.082 255.526 899.512 148.028 923.311 C 38.4787 934.31 -32.2998 876.621 -135.112 866.749 C -236.051 844.86 -323.131 879.957 -424.319 835.878 M 613.72 -613.72 C 681.601 -537.331 788.593 -525.181 844.856 -428.852 C 889.406 -326.577 835.896 -236.044 857.845 -136.159 C 867.903 -34.3865 951.933 39.3201 940.713 150.935 C 916.452 260.458 803.04 297.459 762.511 389.784 C 711.412 476.706 737.931 584.561 664.108 667.244 C 581.079 740.677 490.103 737.034 400.077 789.531 C 304.504 831.082 255.526 899.512 148.028 923.311 C 38.4787 934.31 -32.2998 876.621 -135.112 866.749 C -236.051 844.86 -323.131 879.957 -424.319 835.878 C -519.625 780.21 -537.331 681.601 -613.72 613.72" data-idx="64">
  
  /&gt;
</path>
</g><g data-idx="66" transform="matrix(0.9891705401820664,-0.14677071382233892,0.14677071382233892,0.9891705401820664,0,0)">
  
<path stroke-width="0.5" stroke="url(#lg)" fill="none" d="M 606.415 -606.415 C 673.488 -530.935 765.568 -512.721 820.525 -419.185 M 606.415 -606.415 C 673.488 -530.935 765.568 -512.721 820.525 -419.185 C 864.107 -319.837 821.291 -229.927 842.623 -131.801 M 606.415 -606.415 C 673.488 -530.935 765.568 -512.721 820.525 -419.185 C 864.107 -319.837 821.291 -229.927 842.623 -131.801 C 852.274 -31.8475 946.774 36.9052 935.874 147.931 M 606.415 -606.415 C 673.488 -530.935 765.568 -512.721 820.525 -419.185 C 864.107 -319.837 821.291 -229.927 842.623 -131.801 C 852.274 -31.8475 946.774 36.9052 935.874 147.931 C 912 256.906 825.745 302.455 784.472 397.414 M 606.415 -606.415 C 673.488 -530.935 765.568 -512.721 820.525 -419.185 C 864.107 -319.837 821.291 -229.927 842.623 -131.801 C 852.274 -31.8475 946.774 36.9052 935.874 147.931 C 912 256.906 825.745 302.455 784.472 397.414 C 732.323 486.864 738.411 583.697 664.687 666.442 M 606.415 -606.415 C 673.488 -530.935 765.568 -512.721 820.525 -419.185 C 864.107 -319.837 821.291 -229.927 842.623 -131.801 C 852.274 -31.8475 946.774 36.9052 935.874 147.931 C 912 256.906 825.745 302.455 784.472 397.414 C 732.323 486.864 738.411 583.697 664.687 666.442 C 581.748 739.948 480.135 720.054 392.174 771.497 M 606.415 -606.415 C 673.488 -530.935 765.568 -512.721 820.525 -419.185 C 864.107 -319.837 821.291 -229.927 842.623 -131.801 C 852.274 -31.8475 946.774 36.9052 935.874 147.931 C 912 256.906 825.745 302.455 784.472 397.414 C 732.323 486.864 738.411 583.697 664.687 666.442 C 581.748 739.948 480.135 720.054 392.174 771.497 C 298.776 812.244 251.47 899.657 143.983 922.978 M 606.415 -606.415 C 673.488 -530.935 765.568 -512.721 820.525 -419.185 C 864.107 -319.837 821.291 -229.927 842.623 -131.801 C 852.274 -31.8475 946.774 36.9052 935.874 147.931 C 912 256.906 825.745 302.455 784.472 397.414 C 732.323 486.864 738.411 583.697 664.687 666.442 C 581.748 739.948 480.135 720.054 392.174 771.497 C 298.776 812.244 251.47 899.657 143.983 922.978 C 34.5009 933.504 -35.7059 867.593 -137.433 857.382 M 606.415 -606.415 C 673.488 -530.935 765.568 -512.721 820.525 -419.185 C 864.107 -319.837 821.291 -229.927 842.623 -131.801 C 852.274 -31.8475 946.774 36.9052 935.874 147.931 C 912 256.906 825.745 302.455 784.472 397.414 C 732.323 486.864 738.411 583.697 664.687 666.442 C 581.748 739.948 480.135 720.054 392.174 771.497 C 298.776 812.244 251.47 899.657 143.983 922.978 C 34.5009 933.504 -35.7059 867.593 -137.433 857.382 C -237.255 835.286 -325.958 883.786 -427.576 839.347 M 606.415 -606.415 C 673.488 -530.935 765.568 -512.721 820.525 -419.185 C 864.107 -319.837 821.291 -229.927 842.623 -131.801 C 852.274 -31.8475 946.774 36.9052 935.874 147.931 C 912 256.906 825.745 302.455 784.472 397.414 C 732.323 486.864 738.411 583.697 664.687 666.442 C 581.748 739.948 480.135 720.054 392.174 771.497 C 298.776 812.244 251.47 899.657 143.983 922.978 C 34.5009 933.504 -35.7059 867.593 -137.433 857.382 C -237.255 835.286 -325.958 883.786 -427.576 839.347 C -523.267 783.273 -530.935 673.488 -606.415 606.415" data-idx="68">
  
  /&gt;
</path>
</g><g data-idx="70" transform="matrix(0.9876874709061231,-0.15643995594178034,0.15643995594178034,0.9876874709061231,0,0)">
  
<path stroke-width="0.5" stroke="url(#lg)" fill="none" d="M 613.602 -613.602 C 681.47 -537.227 766.347 -510.677 821.059 -417.063 M 613.602 -613.602 C 681.47 -537.227 766.347 -510.677 821.059 -417.063 C 864.388 -317.667 834.608 -238.337 856.837 -138.588 M 613.602 -613.602 C 681.47 -537.227 766.347 -510.677 821.059 -417.063 C 864.388 -317.667 834.608 -238.337 856.837 -138.588 C 867.187 -36.9167 926.517 34.3711 916.055 143.033 M 613.602 -613.602 C 681.47 -537.227 766.347 -510.677 821.059 -417.063 C 864.388 -317.667 834.608 -238.337 856.837 -138.588 C 867.187 -36.9167 926.517 34.3711 916.055 143.033 C 892.893 249.712 808.943 301.154 767.939 394.147 M 613.602 -613.602 C 681.47 -537.227 766.347 -510.677 821.059 -417.063 C 864.388 -317.667 834.608 -238.337 856.837 -138.588 C 867.187 -36.9167 926.517 34.3711 916.055 143.033 C 892.893 249.712 808.943 301.154 767.939 394.147 C 716.289 481.677 732.116 574.364 659.532 656.434 M 613.602 -613.602 C 681.47 -537.227 766.347 -510.677 821.059 -417.063 C 864.388 -317.667 834.608 -238.337 856.837 -138.588 C 867.187 -36.9167 926.517 34.3711 916.055 143.033 C 892.893 249.712 808.943 301.154 767.939 394.147 C 716.289 481.677 732.116 574.364 659.532 656.434 C 577.805 729.403 470.069 707.081 383.703 757.43 M 613.602 -613.602 C 681.47 -537.227 766.347 -510.677 821.059 -417.063 C 864.388 -317.667 834.608 -238.337 856.837 -138.588 C 867.187 -36.9167 926.517 34.3711 916.055 143.033 C 892.893 249.712 808.943 301.154 767.939 394.147 C 716.289 481.677 732.116 574.364 659.532 656.434 C 577.805 729.403 470.069 707.081 383.703 757.43 C 292.017 797.28 252.401 889.248 146.132 912.751 M 613.602 -613.602 C 681.47 -537.227 766.347 -510.677 821.059 -417.063 C 864.388 -317.667 834.608 -238.337 856.837 -138.588 C 867.187 -36.9167 926.517 34.3711 916.055 143.033 C 892.893 249.712 808.943 301.154 767.939 394.147 C 716.289 481.677 732.116 574.364 659.532 656.434 C 577.805 729.403 470.069 707.081 383.703 757.43 C 292.017 797.28 252.401 889.248 146.132 912.751 C 37.8367 923.6 -34.2345 851.022 -134.024 841.099 M 613.602 -613.602 C 681.47 -537.227 766.347 -510.677 821.059 -417.063 C 864.388 -317.667 834.608 -238.337 856.837 -138.588 C 867.187 -36.9167 926.517 34.3711 916.055 143.033 C 892.893 249.712 808.943 301.154 767.939 394.147 C 716.289 481.677 732.116 574.364 659.532 656.434 C 577.805 729.403 470.069 707.081 383.703 757.43 C 292.017 797.28 252.401 889.248 146.132 912.751 C 37.8367 923.6 -34.2345 851.022 -134.024 841.099 C -231.956 819.516 -326.822 878.322 -427.792 833.82 M 613.602 -613.602 C 681.47 -537.227 766.347 -510.677 821.059 -417.063 C 864.388 -317.667 834.608 -238.337 856.837 -138.588 C 867.187 -36.9167 926.517 34.3711 916.055 143.033 C 892.893 249.712 808.943 301.154 767.939 394.147 C 716.289 481.677 732.116 574.364 659.532 656.434 C 577.805 729.403 470.069 707.081 383.703 757.43 C 292.017 797.28 252.401 889.248 146.132 912.751 C 37.8367 923.6 -34.2345 851.022 -134.024 841.099 C -231.956 819.516 -326.822 878.322 -427.792 833.82 C -522.832 777.759 -537.227 681.47 -613.602 613.602" data-idx="72">
  
  /&gt;
</path>
</g><g data-idx="74" transform="matrix(0.9865085507748289,-0.16370974084686263,0.16370974084686263,0.9865085507748289,0,0)">
  
<path stroke-width="0.5" stroke="url(#lg)" fill="none" d="M 603.241 -603.241 C 669.963 -528.156 777.765 -522.598 833.798 -427.559 M 603.241 -603.241 C 669.963 -528.156 777.765 -522.598 833.798 -427.559 C 878.273 -326.593 810.39 -228.052 831.577 -131.221 M 603.241 -603.241 C 669.963 -528.156 777.765 -522.598 833.798 -427.559 C 878.273 -326.593 810.39 -228.052 831.577 -131.221 C 841.236 -32.5696 907.343 34.879 896.954 141.284 M 603.241 -603.241 C 669.963 -528.156 777.765 -522.598 833.798 -427.559 C 878.273 -326.593 810.39 -228.052 831.577 -131.221 C 841.236 -32.5696 907.343 34.879 896.954 141.284 C 874.131 245.73 805.087 297.653 764.521 390.218 M 603.241 -603.241 C 669.963 -528.156 777.765 -522.598 833.798 -427.559 C 878.273 -326.593 810.39 -228.052 831.577 -131.221 C 841.236 -32.5696 907.343 34.879 896.954 141.284 C 874.131 245.73 805.087 297.653 764.521 390.218 C 713.356 477.373 726.748 569.594 654.762 651.066 M 603.241 -603.241 C 669.963 -528.156 777.765 -522.598 833.798 -427.559 C 878.273 -326.593 810.39 -228.052 831.577 -131.221 C 841.236 -32.5696 907.343 34.879 896.954 141.284 C 874.131 245.73 805.087 297.653 764.521 390.218 C 713.356 477.373 726.748 569.594 654.762 651.066 C 573.699 723.512 467.901 696.529 382.789 746.697 M 603.241 -603.241 C 669.963 -528.156 777.765 -522.598 833.798 -427.559 C 878.273 -326.593 810.39 -228.052 831.577 -131.221 C 841.236 -32.5696 907.343 34.879 896.954 141.284 C 874.131 245.73 805.087 297.653 764.521 390.218 C 713.356 477.373 726.748 569.594 654.762 651.066 C 573.699 723.512 467.901 696.529 382.789 746.697 C 292.371 786.513 247.78 888.642 141.614 911.605 M 603.241 -603.241 C 669.963 -528.156 777.765 -522.598 833.798 -427.559 C 878.273 -326.593 810.39 -228.052 831.577 -131.221 C 841.236 -32.5696 907.343 34.879 896.954 141.284 C 874.131 245.73 805.087 297.653 764.521 390.218 C 713.356 477.373 726.748 569.594 654.762 651.066 C 573.699 723.512 467.901 696.529 382.789 746.697 C 292.371 786.513 247.78 888.642 141.614 911.605 C 33.4844 921.931 -34.4682 839.349 -132.884 829.48 M 603.241 -603.241 C 669.963 -528.156 777.765 -522.598 833.798 -427.559 C 878.273 -326.593 810.39 -228.052 831.577 -131.221 C 841.236 -32.5696 907.343 34.879 896.954 141.284 C 874.131 245.73 805.087 297.653 764.521 390.218 C 713.356 477.373 726.748 569.594 654.762 651.066 C 573.699 723.512 467.901 696.529 382.789 746.697 C 292.371 786.513 247.78 888.642 141.614 911.605 C 33.4844 921.931 -34.4682 839.349 -132.884 829.48 C -229.458 808.111 -318.367 869.546 -418.365 826.099 M 603.241 -603.241 C 669.963 -528.156 777.765 -522.598 833.798 -427.559 C 878.273 -326.593 810.39 -228.052 831.577 -131.221 C 841.236 -32.5696 907.343 34.879 896.954 141.284 C 874.131 245.73 805.087 297.653 764.521 390.218 C 713.356 477.373 726.748 569.594 654.762 651.066 C 573.699 723.512 467.901 696.529 382.789 746.697 C 292.371 786.513 247.78 888.642 141.614 911.605 C 33.4844 921.931 -34.4682 839.349 -132.884 829.48 C -229.458 808.111 -318.367 869.546 -418.365 826.099 C -512.562 771.199 -528.156 669.963 -603.241 603.241" data-idx="76">
  
  /&gt;
</path>
</g><g data-idx="78" transform="matrix(0.9856455357610431,-0.16882795335585396,0.16882795335585396,0.9856455357610431,0,0)">
  
<path stroke-width="0.5" stroke="url(#lg)" fill="none" d="M 590.508 -590.508 C 655.822 -517.008 761.433 -511.843 816.316 -418.799 M 590.508 -590.508 C 655.822 -517.008 761.433 -511.843 816.316 -418.799 C 859.882 -319.948 815.845 -230.265 837.255 -132.777 M 590.508 -590.508 C 655.822 -517.008 761.433 -511.843 816.316 -418.799 C 859.882 -319.948 815.845 -230.265 837.255 -132.777 C 847.058 -33.4475 915.068 39.6749 904.062 146.955 M 590.508 -590.508 C 655.822 -517.008 761.433 -511.843 816.316 -418.799 C 859.882 -319.948 815.845 -230.265 837.255 -132.777 C 847.058 -33.4475 915.068 39.6749 904.062 146.955 C 880.522 252.197 787.941 293.895 747.936 384.47 M 590.508 -590.508 C 655.822 -517.008 761.433 -511.843 816.316 -418.799 C 859.882 -319.948 815.845 -230.265 837.255 -132.777 C 847.058 -33.4475 915.068 39.6749 904.062 146.955 C 880.522 252.197 787.941 293.895 747.936 384.47 C 697.562 469.716 706.486 557.443 636.069 636.617 M 590.508 -590.508 C 655.822 -517.008 761.433 -511.843 816.316 -418.799 C 859.882 -319.948 815.845 -230.265 837.255 -132.777 C 847.058 -33.4475 915.068 39.6749 904.062 146.955 C 880.522 252.197 787.941 293.895 747.936 384.47 C 697.562 469.716 706.486 557.443 636.069 636.617 C 556.834 706.967 470.932 706.95 384.574 757.401 M 590.508 -590.508 C 655.822 -517.008 761.433 -511.843 816.316 -418.799 C 859.882 -319.948 815.845 -230.265 837.255 -132.777 C 847.058 -33.4475 915.068 39.6749 904.062 146.955 C 880.522 252.197 787.941 293.895 747.936 384.47 C 697.562 469.716 706.486 557.443 636.069 636.617 C 556.834 706.967 470.932 706.95 384.574 757.401 C 292.886 797.353 248.652 870.799 144.577 893.989 M 590.508 -590.508 C 655.822 -517.008 761.433 -511.843 816.316 -418.799 C 859.882 -319.948 815.845 -230.265 837.255 -132.777 C 847.058 -33.4475 915.068 39.6749 904.062 146.955 C 880.522 252.197 787.941 293.895 747.936 384.47 C 697.562 469.716 706.486 557.443 636.069 636.617 C 556.834 706.967 470.932 706.95 384.574 757.401 C 292.886 797.353 248.652 870.799 144.577 893.989 C 38.4973 904.785 -37.1992 857.917 -137.779 847.598 M 590.508 -590.508 C 655.822 -517.008 761.433 -511.843 816.316 -418.799 C 859.882 -319.948 815.845 -230.265 837.255 -132.777 C 847.058 -33.4475 915.068 39.6749 904.062 146.955 C 880.522 252.197 787.941 293.895 747.936 384.47 C 697.562 469.716 706.486 557.443 636.069 636.617 C 556.834 706.967 470.932 706.95 384.574 757.401 C 292.886 797.353 248.652 870.799 144.577 893.989 C 38.4973 904.785 -37.1992 857.917 -137.779 847.598 C -236.448 825.529 -310.585 850.733 -408.425 808.331 M 590.508 -590.508 C 655.822 -517.008 761.433 -511.843 816.316 -418.799 C 859.882 -319.948 815.845 -230.265 837.255 -132.777 C 847.058 -33.4475 915.068 39.6749 904.062 146.955 C 880.522 252.197 787.941 293.895 747.936 384.47 C 697.562 469.716 706.486 557.443 636.069 636.617 C 556.834 706.967 470.932 706.95 384.574 757.401 C 292.886 797.353 248.652 870.799 144.577 893.989 C 38.4973 904.785 -37.1992 857.917 -137.779 847.598 C -236.448 825.529 -310.585 850.733 -408.425 808.331 C -500.603 754.723 -517.008 655.822 -590.508 590.508" data-idx="80">
  
  /&gt;
</path>
</g><g data-idx="82" transform="matrix(0.985092993893875,-0.172022653686083,0.172022653686083,0.985092993893875,0,0)">
  
<path stroke-width="0.5" stroke="url(#lg)" fill="none" d="M 587.368 -587.368 C 652.335 -514.259 739.46 -490.065 791.935 -399.754 M 587.368 -587.368 C 652.335 -514.259 739.46 -490.065 791.935 -399.754 C 833.432 -303.901 798.848 -227.302 820.027 -131.831 M 587.368 -587.368 C 652.335 -514.259 739.46 -490.065 791.935 -399.754 C 833.432 -303.901 798.848 -227.302 820.027 -131.831 C 829.839 -34.5337 903.178 34.6744 892.842 140.591 M 587.368 -587.368 C 652.335 -514.259 739.46 -490.065 791.935 -399.754 C 833.432 -303.901 798.848 -227.302 820.027 -131.831 C 829.839 -34.5337 903.178 34.6744 892.842 140.591 C 870.129 244.559 798.056 297.936 757.505 389.672 M 587.368 -587.368 C 652.335 -514.259 739.46 -490.065 791.935 -399.754 C 833.432 -303.901 798.848 -227.302 820.027 -131.831 C 829.839 -34.5337 903.178 34.6744 892.842 140.591 C 870.129 244.559 798.056 297.936 757.505 389.672 C 706.454 476.006 696.279 548.994 626.925 627.027 M 587.368 -587.368 C 652.335 -514.259 739.46 -490.065 791.935 -399.754 C 833.432 -303.901 798.848 -227.302 820.027 -131.831 C 829.839 -34.5337 903.178 34.6744 892.842 140.591 C 870.129 244.559 798.056 297.936 757.505 389.672 C 706.454 476.006 696.279 548.994 626.925 627.027 C 548.881 696.368 459.274 684.361 375.653 733.599 M 587.368 -587.368 C 652.335 -514.259 739.46 -490.065 791.935 -399.754 C 833.432 -303.901 798.848 -227.302 820.027 -131.831 C 829.839 -34.5337 903.178 34.6744 892.842 140.591 C 870.129 244.559 798.056 297.936 757.505 389.672 C 706.454 476.006 696.279 548.994 626.925 627.027 C 548.881 696.368 459.274 684.361 375.653 733.599 C 286.824 772.668 250.031 884.864 144.293 908.119 M 587.368 -587.368 C 652.335 -514.259 739.46 -490.065 791.935 -399.754 C 833.432 -303.901 798.848 -227.302 820.027 -131.831 C 829.839 -34.5337 903.178 34.6744 892.842 140.591 C 870.129 244.559 798.056 297.936 757.505 389.672 C 706.454 476.006 696.279 548.994 626.925 627.027 C 548.881 696.368 459.274 684.361 375.653 733.599 C 286.824 772.668 250.031 884.864 144.293 908.119 C 36.5552 918.784 -29.4627 821.12 -125.771 811.965 M 587.368 -587.368 C 652.335 -514.259 739.46 -490.065 791.935 -399.754 C 833.432 -303.901 798.848 -227.302 820.027 -131.831 C 829.839 -34.5337 903.178 34.6744 892.842 140.591 C 870.129 244.559 798.056 297.936 757.505 389.672 C 706.454 476.006 696.279 548.994 626.925 627.027 C 548.881 696.368 459.274 684.361 375.653 733.599 C 286.824 772.668 250.031 884.864 144.293 908.119 C 36.5552 918.784 -29.4627 821.12 -125.771 811.965 C -220.335 791.554 -315.756 863.822 -415.099 820.721 M 587.368 -587.368 C 652.335 -514.259 739.46 -490.065 791.935 -399.754 C 833.432 -303.901 798.848 -227.302 820.027 -131.831 C 829.839 -34.5337 903.178 34.6744 892.842 140.591 C 870.129 244.559 798.056 297.936 757.505 389.672 C 706.454 476.006 696.279 548.994 626.925 627.027 C 548.881 696.368 459.274 684.361 375.653 733.599 C 286.824 772.668 250.031 884.864 144.293 908.119 C 36.5552 918.784 -29.4627 821.12 -125.771 811.965 C -220.335 791.554 -315.756 863.822 -415.099 820.721 C -508.687 766.243 -514.259 652.335 -587.368 587.368" data-idx="84">
  
  /&gt;
</path>
</g><g data-idx="86"></g></g></svg>